<svg width="164" height="42" viewBox="0 0 164 42" fill="none" xmlns="http://www.w3.org/2000/svg">
<path d="M79.2087 24.4494V14.3779L79 12.7863H88.2104C89.802 12.7863 91.0023 13.0994 91.8111 13.7256C92.62 14.3518 93.0113 15.3694 93.0113 16.7001V20.4834C93.0113 21.8663 92.62 22.8578 91.8111 23.5101C91.0284 24.1363 89.802 24.4494 88.1843 24.4494H79.1566H79.2087ZM83.0964 21.7097H87.6364C88.654 21.7097 89.1758 21.2401 89.1758 20.3008V16.8566C89.1758 16.4653 89.0715 16.1522 88.8366 15.8652C88.6018 15.6042 88.2104 15.4477 87.6364 15.4477H83.0964V21.6836V21.7097Z" fill="#32453D"/>
<path d="M108.718 24.6569C108.196 24.6569 107.596 24.5786 106.944 24.3959C106.291 24.2394 105.665 23.8219 105.013 23.1696L104.178 22.3347C103.786 21.9433 103.395 21.6041 103.03 21.3693C102.665 21.1084 102.247 20.9257 101.777 20.7953C101.308 20.6648 100.734 20.6126 100.029 20.6126H99.8727V24.4481H96.0111V14.3767L95.8024 12.759H105.013C105.874 12.759 106.552 12.8633 107.074 13.0721C107.596 13.2808 108.013 13.5417 108.274 13.8809C108.561 14.2201 108.744 14.6115 108.848 15.029C108.953 15.4464 109.005 15.89 109.005 16.3075V16.6728C109.005 17.4555 108.796 18.1861 108.405 18.8123C108.013 19.4385 107.361 19.882 106.5 20.143C106.839 20.3517 107.152 20.5343 107.439 20.7431C107.726 20.9518 108.066 21.1606 108.457 21.3954C108.9 21.6563 109.292 21.8389 109.683 21.9433C110.075 22.0477 110.388 22.1259 110.623 22.152C110.883 22.1781 111.014 22.2042 111.066 22.2042L110.466 24.4481C110.309 24.5003 110.075 24.5264 109.735 24.5786C109.422 24.6308 109.057 24.6569 108.692 24.6569H108.718ZM102.195 17.9773C102.534 17.9773 102.847 17.9773 103.16 17.9773C103.473 17.9773 103.76 17.9513 103.995 17.9252C104.439 17.873 104.752 17.7164 104.908 17.5077C105.065 17.2729 105.169 16.9859 105.169 16.6467V16.4379C105.169 16.1509 105.091 15.9161 104.908 15.7595C104.752 15.603 104.439 15.5247 103.995 15.5247H99.8727V17.9252C100.212 17.9252 100.577 17.9513 100.969 17.9773C101.36 18.0034 101.777 18.0034 102.169 18.0034L102.195 17.9773Z" fill="#32453D"/>
<path d="M116.704 24.4485C115.295 24.4485 114.278 24.1354 113.625 23.5092C112.973 22.8829 112.66 21.8654 112.66 20.4825V16.6992C112.66 15.3424 112.973 14.3509 113.625 13.7247C114.252 13.0985 115.295 12.7854 116.704 12.7854H122.497C123.88 12.7854 124.897 13.0985 125.549 13.7247C126.202 14.3509 126.515 15.3685 126.515 16.6992V20.4825C126.515 21.8654 126.202 22.8569 125.549 23.5092C124.897 24.1354 123.88 24.4485 122.523 24.4485H116.73H116.704ZM118.087 21.761H121.166C122.21 21.761 122.705 21.2913 122.705 20.352V16.8818C122.705 15.9686 122.184 15.499 121.166 15.499H118.087C117.565 15.499 117.148 15.6033 116.887 15.8121C116.626 16.0208 116.496 16.3861 116.496 16.8818V20.352C116.496 20.8478 116.626 21.2131 116.887 21.4218C117.148 21.6305 117.539 21.761 118.087 21.761Z" fill="#32453D"/>
<path d="M129.696 24.4481V14.3767L129.487 12.7851H133.14L138.75 18.4731L139.533 19.3341H139.742V12.759H143.551V24.4481H140.237L134.471 18.7079L133.688 17.7686H133.479V24.4481H129.67H129.696Z" fill="#32453D"/>
<path d="M146.734 24.4481V12.759H159.492V15.4725H150.621V17.1163H157.196V19.8821H150.621V21.7346H159.179L160.38 24.2394C160.38 24.2394 160.197 24.3438 159.858 24.3959C159.492 24.4481 158.892 24.4742 158.005 24.4742H146.76L146.734 24.4481Z" fill="#32453D"/>
<path d="M82.8511 39.9713C81.4986 39.9713 80.5359 39.6733 79.9169 39.0773C79.298 38.4813 79 37.5185 79 36.189V32.5671C79 31.2834 79.298 30.3207 79.9169 29.7247C80.5359 29.1287 81.4986 28.8077 82.874 28.8077H88.4214C89.751 28.8077 90.7137 29.1057 91.3327 29.7247C91.9516 30.3436 92.2496 31.2834 92.2496 32.5671V36.189C92.2496 37.5185 91.9516 38.4584 91.3097 39.0773C90.6908 39.6733 89.728 39.9713 88.3985 39.9713H82.8511ZM84.1806 37.4039H87.1377C88.1234 37.4039 88.6277 36.9455 88.6277 36.0515V32.7276C88.6277 31.8336 88.1234 31.3981 87.1377 31.3981H84.1806C83.6763 31.3981 83.2866 31.4898 83.0345 31.6961C82.7823 31.9024 82.6448 32.2462 82.6448 32.7276V36.0515C82.6448 36.5328 82.7823 36.8538 83.0345 37.083C83.2866 37.3122 83.6763 37.4039 84.1806 37.4039Z" fill="#32453D"/>
<path d="M95.2994 39.971V30.3203L95.116 28.8074H103.941C105.477 28.8074 106.623 29.1054 107.403 29.7243C108.182 30.3432 108.549 31.2831 108.549 32.5668V36.1886C108.549 37.5182 108.159 38.458 107.403 39.077C106.646 39.673 105.5 39.971 103.941 39.971H95.2994ZM99.013 37.3577H103.368C104.354 37.3577 104.835 36.8993 104.858 36.0052V32.7043C104.858 32.3375 104.744 32.0166 104.537 31.7645C104.331 31.5123 103.941 31.3748 103.368 31.3748H99.013V37.3348V37.3577Z" fill="#32453D"/>
<path d="M111.184 39.9709V28.7844H114.829V39.9709H111.184Z" fill="#32453D"/>
<path d="M120.036 39.971C119.165 39.971 118.546 39.9251 118.133 39.8563C117.72 39.7876 117.514 39.6959 117.514 39.5813L118.66 37.1285C118.958 37.1743 119.554 37.2202 120.471 37.266C121.388 37.3119 122.58 37.3348 124.024 37.3348H125.537C125.973 37.3348 126.271 37.266 126.431 37.1514C126.592 37.0139 126.66 36.8305 126.66 36.6013V36.4179C126.66 36.1199 126.592 35.9136 126.431 35.7989C126.271 35.6843 125.973 35.6385 125.537 35.6385H121.182C119.898 35.6385 118.981 35.4092 118.385 34.9279C117.812 34.4465 117.514 33.69 117.514 32.5897V31.902C117.514 31.3518 117.606 30.8246 117.835 30.3661C118.041 29.9077 118.408 29.518 118.912 29.2429C119.417 28.9678 120.127 28.8074 120.998 28.8074H127.302C128.082 28.8074 128.723 28.8532 129.228 28.9449C129.732 29.0366 130.007 29.1283 130.007 29.22L129.434 31.5811C129.067 31.5352 128.403 31.5123 127.417 31.4665C126.431 31.4206 125.193 31.3977 123.68 31.3977H122.305C121.915 31.3977 121.64 31.4435 121.48 31.5352C121.319 31.6498 121.228 31.8332 121.205 32.1312V32.2688C121.205 32.5668 121.296 32.7502 121.48 32.8877C121.663 33.0023 121.938 33.0482 122.328 33.0482H126.523C127.325 33.0482 128.036 33.1399 128.586 33.3003C129.159 33.4608 129.595 33.7588 129.893 34.1943C130.191 34.6299 130.351 35.2717 130.351 36.1199V36.8076C130.351 37.7474 130.099 38.5268 129.617 39.0999C129.136 39.673 128.288 39.971 127.073 39.971H120.013H120.036Z" fill="#32453D"/>
<path d="M133.007 39.9709V28.7844H136.674V33.0481H142.589V28.7844H146.233V39.9709H142.589V35.6384H136.674V39.9709H133.007Z" fill="#32453D"/>
<path d="M147.931 39.9709L153.501 28.7844H158.453L164 39.9709H159.92L158.98 37.9307H152.974L151.92 39.9709H147.931ZM154.006 35.3175H157.902L156.069 31.2601H155.885L154.028 35.3175H154.006Z" fill="#32453D"/>
<path d="M89 2.87442C88.752 3.22166 83.8245 4.42873 83.0308 4.59408C81.0631 5.00746 78.7978 5.5862 76.8466 5.05707C75.8545 4.77597 74.8293 4.11456 73.8868 3.70118V12.4318C73.8868 12.746 71.4396 17.7396 71.1419 18.1861C71.0097 18.3845 70.8939 18.5829 70.6955 18.7317H68.2483C67.3223 18.7317 69.2569 14.631 68.6616 14.2176L60.0964 13.3412C59.6003 13.49 59.8814 15.6727 59.0712 15.9207C58.261 16.1688 57.5004 15.8215 57.8641 14.9617L55.1027 15.2097V17.475H51.2996C50.5721 19.5254 49.6792 21.8073 47.5131 22.0057C46.0414 22.1215 42.5525 22.1711 41.147 21.9726C39.3116 21.7246 38.3525 19.4427 37.658 17.475H33.9045V15.2097L31.077 14.9617C31.4573 15.8215 30.6636 16.1522 29.8865 15.9207C29.0266 15.6562 29.44 13.3578 28.729 13.3412L20.296 14.2176C19.7008 14.6475 21.6354 18.7317 20.7094 18.7317H18.2622C18.0638 18.5829 17.948 18.3845 17.8157 18.1861C17.5181 17.7396 15.0709 12.7625 15.0709 12.4318V3.68464C13.8804 4.04842 12.8056 4.92479 11.5324 5.12321C9.13474 5.48699 4.12456 4.19724 1.69388 3.43661C1.31357 3.32087 -0.323422 2.97363 0.0568891 2.37836C0.271847 2.04765 5.26549 2.08072 6.02611 2.06419C6.42296 2.04765 6.7702 1.89884 7.15051 1.8823C9.00246 1.83269 13.3678 2.24608 14.8063 1.8823C14.9221 1.84923 15.137 1.33664 15.4181 1.13821C15.5835 1.02247 16.8236 0.245311 16.9228 0.195705C18.1465 -0.333423 18.4276 0.327987 19.1882 0.790974C19.7338 1.13821 20.2464 1.10514 20.5937 1.8823C24.4298 1.99805 28.3156 1.70041 32.1518 1.8823C32.6148 1.8823 35.2439 2.08072 35.3431 2.22954C35.4258 2.36182 35.3431 2.64292 35.1778 2.79174C34.9793 2.94056 31.7054 3.84999 31.1597 3.99881C29.1093 4.56101 25.918 5.43738 23.8676 5.12321C22.5944 4.92479 21.5031 4.06496 20.3126 3.68464V9.57119C23.785 9.09167 27.2408 8.36412 30.6967 7.80192C31.6888 7.63657 33.1439 7.6035 34.2518 7.40508C35.4258 4.66022 39.5761 2.64292 44.5036 2.64292C49.4311 2.64292 53.598 4.67676 54.7555 7.42161C55.8634 7.6035 57.2854 7.63657 58.261 7.80192C61.7334 8.36412 65.1727 9.09167 68.6616 9.57119V3.68464C67.4546 4.24684 65.9168 5.12321 64.6105 5.28856C62.9074 5.48699 55.7641 3.78385 54.1272 2.95709C53.9122 2.85788 53.598 2.7752 53.6311 2.47757C53.6807 2.21301 54.9043 2.08072 55.1689 2.04765C59.435 1.73348 63.9822 2.01458 68.2483 1.89884C68.7609 1.23743 69.3561 1.18782 69.9018 0.857115C70.2656 0.642156 70.3482 0.129564 71.1915 0.0964931C72.1506 0.0468873 72.2167 0.609086 72.6301 0.857115C73.1758 1.18782 73.8206 1.12168 74.1513 1.89884C79.0788 1.98151 83.9898 1.99805 88.8843 2.39489L89 2.87442Z" fill="#2F461A"/>
<path d="M19.4186 31.2486C18.9886 31.2486 18.5753 31.0832 18.2611 30.7525C17.6327 30.1076 17.6493 29.0825 18.2942 28.4707L27.2893 19.7731C27.9342 19.1448 28.9594 19.1613 29.5712 19.8062C30.1995 20.4511 30.183 21.4762 29.5381 22.088L20.543 30.7856C20.2288 31.0832 19.8154 31.2486 19.4186 31.2486Z" fill="url(#paint0_linear_1441_241)"/>
<path d="M36.1173 40.5086C36.1173 40.5086 35.9684 40.5086 35.9023 40.5086C35.0094 40.3928 34.3976 39.5661 34.5133 38.6897L35.7535 29.4961C35.7535 29.3969 35.7535 29.3142 35.7535 29.2646L34.133 28.4709C34.133 28.4709 34.0173 28.5536 33.9511 28.6197L27.4528 35.2338C26.8244 35.8787 25.7993 35.8787 25.1709 35.2504C24.526 34.622 24.526 33.5968 25.1544 32.9685L31.6527 26.3544C32.7441 25.2465 34.1992 24.8993 35.3897 25.478L37.3739 26.4371C38.5479 27.0158 39.1763 28.3717 38.9613 29.926L37.7212 39.1196C37.6054 39.9298 36.911 40.5251 36.1173 40.5251V40.5086Z" fill="url(#paint1_linear_1441_241)"/>
<path d="M69.1903 31.2484C68.777 31.2484 68.3801 31.0996 68.0659 30.7855L59.0708 22.0879C58.4259 21.4596 58.4094 20.4344 59.0377 19.806C59.666 19.1777 60.6747 19.1446 61.3196 19.773L70.3147 28.4705C70.9596 29.0989 70.9762 30.124 70.3478 30.7524C70.0336 31.0831 69.6037 31.2484 69.1903 31.2484Z" fill="url(#paint2_linear_1441_241)"/>
<path d="M52.4726 40.5083C51.6789 40.5083 50.9844 39.913 50.8687 39.1028L49.6286 29.9092C49.4301 28.3714 50.0419 26.999 51.2325 26.4203L53.2167 25.4447C54.3907 24.866 55.8623 25.2132 56.9537 26.3211L63.452 32.9352C64.0804 33.58 64.0638 34.6052 63.4355 35.217C62.7906 35.8454 61.7654 35.8288 61.1536 35.2005L54.6553 28.5864C54.6553 28.5864 54.523 28.4707 54.4734 28.4376L52.8529 29.2313C52.8529 29.2313 52.8529 29.3636 52.8529 29.4628L54.0931 38.6564C54.2088 39.5493 53.597 40.3595 52.7041 40.4752C52.638 40.4752 52.5553 40.4752 52.4892 40.4752L52.4726 40.5083Z" fill="url(#paint3_linear_1441_241)"/>
<path d="M69.1901 31.2484C68.7767 31.2484 68.3799 31.0996 68.0657 30.7855L59.0705 22.0879C58.4257 21.4596 58.4091 20.4344 59.0375 19.806C59.6658 19.1777 60.6744 19.1446 61.3193 19.773L70.3145 28.4705C70.9594 29.0989 70.9759 30.124 70.3476 30.7524C70.0334 31.0831 69.6035 31.2484 69.1901 31.2484Z" fill="url(#paint4_linear_1441_241)"/>
<path d="M44.5007 41.5336C43.6078 41.5336 42.8802 40.806 42.8802 39.9131V27.4621C42.8802 26.5692 43.6078 25.8416 44.5007 25.8416C45.3936 25.8416 46.1212 26.5692 46.1212 27.4621V39.9131C46.1212 40.806 45.3936 41.5336 44.5007 41.5336Z" fill="url(#paint5_linear_1441_241)"/>
<defs>
<linearGradient id="paint0_linear_1441_241" x1="17.8" y1="25.2803" x2="30.0323" y2="25.2803" gradientUnits="userSpaceOnUse">
<stop stop-color="#CBCCCB"/>
<stop offset="1" stop-color="#4A5E44"/>
</linearGradient>
<linearGradient id="paint1_linear_1441_241" x1="24.6852" y1="32.8633" x2="39.0031" y2="32.8633" gradientUnits="userSpaceOnUse">
<stop stop-color="#CBCCCB"/>
<stop offset="1" stop-color="#4A5E44"/>
</linearGradient>
<linearGradient id="paint2_linear_1441_241" x1="58.5766" y1="25.2832" x2="70.8089" y2="25.2832" gradientUnits="userSpaceOnUse">
<stop stop-color="#CBCCCB"/>
<stop offset="1" stop-color="#4A5E44"/>
</linearGradient>
<linearGradient id="paint3_linear_1441_241" x1="49.5917" y1="32.8382" x2="63.9151" y2="32.8382" gradientUnits="userSpaceOnUse">
<stop stop-color="#CBCCCB"/>
<stop offset="1" stop-color="#4A5E44"/>
</linearGradient>
<linearGradient id="paint4_linear_1441_241" x1="58.5764" y1="25.2832" x2="70.8087" y2="25.2832" gradientUnits="userSpaceOnUse">
<stop stop-color="#CBCCCB"/>
<stop offset="1" stop-color="#4A5E44"/>
</linearGradient>
<linearGradient id="paint5_linear_1441_241" x1="42.8802" y1="33.6876" x2="46.1212" y2="33.6876" gradientUnits="userSpaceOnUse">
<stop stop-color="#CBCCCB"/>
<stop offset="1" stop-color="#4A5E44"/>
</linearGradient>
</defs>
</svg>
